<svg xmlns="http://www.w3.org/2000/svg" xmlns:xlink="http://www.w3.org/1999/xlink" fill="none" version="1.1" width="200" height="200" viewBox="0 0 200 200"><defs><clipPath id="master_svg0_23_259"><rect x="0" y="0" width="200" height="200" rx="0"/></clipPath></defs><g clip-path="url(#master_svg0_23_259)"><rect x="0" y="0" width="200" height="200" rx="0" fill="#FFFFFF" fill-opacity="1"/><g><g><path d="M99.5,70Q99.8682,70,100.236,69.9819Q100.6038,69.9639,100.9703,69.9278Q101.3367,69.8917,101.7009,69.8376Q102.0652,69.7836,102.4263,69.7118Q102.7875,69.6399,103.1447,69.5505Q103.5019,69.461,103.8543,69.3541Q104.2066,69.24719999999999,104.5533,69.1232Q104.9,68.9991,105.2402,68.8582Q105.5804,68.7173,105.9133,68.5598Q106.2462,68.4024,106.5709,68.2288Q106.8957,68.0552,107.2115,67.8659Q107.5274,67.67660000000001,107.8335,67.47200000000001Q108.14,67.2675,108.435,67.0481Q108.731,66.8288,109.016,66.5952Q109.301,66.3616,109.573,66.1143Q109.846,65.867,110.107,65.6066Q110.367,65.3462,110.614,65.07339999999999Q110.862,64.8005,111.095,64.5159Q111.329,64.2313,111.548,63.935500000000005Q111.767,63.639700000000005,111.972,63.3335Q112.177,63.0274,112.366,62.7115Q112.555,62.395700000000005,112.729,62.0709Q112.902,61.7462,113.06,61.4133Q113.217,61.0804,113.358,60.7402Q113.499,60.4,113.623,60.0533Q113.747,59.7066,113.854,59.354299999999995Q113.961,59.0019,114.05,58.6447Q114.14,58.2875,114.212,57.9264Q114.284,57.565200000000004,114.338,57.201Q114.392,56.8367,114.428,56.4703Q114.464,56.1038,114.482,55.736000000000004Q114.5,55.3682,114.5,55Q114.5,54.6318,114.482,54.263999999999996Q114.464,53.8962,114.428,53.5297Q114.392,53.1633,114.338,52.799Q114.284,52.434799999999996,114.212,52.0736Q114.14,51.7125,114.05,51.3553Q113.961,50.9981,113.854,50.6457Q113.747,50.2934,113.623,49.94665Q113.499,49.59995,113.358,49.25975Q113.217,48.91955,113.06,48.58667Q112.902,48.2538,112.729,47.929050000000004Q112.555,47.6043,112.366,47.28846Q112.177,46.97262,111.972,46.66645Q111.767,46.36027,111.548,46.06451Q111.329,45.76875,111.095,45.4841Q110.862,45.19945,110.614,44.92661Q110.367,44.65378,110.107,44.3934Q109.846,44.13302,109.573,43.88573Q109.301,43.63845,109.016,43.40484Q108.731,43.17124,108.435,42.95189Q108.14,42.73253,107.8335,42.52796Q107.5274,42.32338,107.2115,42.13407Q106.8957,41.94476,106.5709,41.77118Q106.2462,41.5976,105.9133,41.44016Q105.5804,41.28272,105.2402,41.14181Q104.9,41.00089,104.5533,40.876839Q104.2066,40.752786,103.8543,40.645895Q103.5019,40.539004,103.1447,40.449531Q102.7875,40.360059,102.4263,40.288221Q102.0652,40.216383,101.7009,40.162352Q101.3367,40.108322,100.9703,40.0722291Q100.6038,40.0361363,100.236,40.0180682Q99.8682,40,99.5,40Q99.1318,40,98.764,40.0180682Q98.3962,40.0361363,98.0297,40.0722291Q97.6633,40.108322,97.299,40.162352Q96.9348,40.216383,96.5736,40.288221Q96.2125,40.360059,95.8553,40.449531Q95.4981,40.539004,95.1457,40.645895Q94.7934,40.752786,94.4466,40.876839Q94.0999,41.00089,93.7597,41.14181Q93.4195,41.28272,93.0867,41.44016Q92.7538,41.5976,92.429,41.77118Q92.1043,41.94476,91.7885,42.13407Q91.4726,42.32338,91.1664,42.52796Q90.8603,42.73253,90.5645,42.95189Q90.2687,43.17124,89.9841,43.40484Q89.6994,43.63845,89.4266,43.88573Q89.1538,44.13302,88.8934,44.3934Q88.633,44.65378,88.3857,44.92661Q88.1384,45.19945,87.9048,45.4841Q87.6712,45.76874,87.4519,46.06451Q87.2325,46.36027,87.0279,46.66645Q86.8234,46.97262,86.6341,47.28846Q86.4447,47.6043,86.2712,47.929050000000004Q86.0976,48.2538,85.9401,48.58667Q85.7827,48.91955,85.6418,49.25975Q85.5009,49.59995,85.3768,49.94665Q85.2528,50.2934,85.1459,50.6457Q85.039,50.9981,84.9495,51.3553Q84.8601,51.7125,84.7882,52.0736Q84.7164,52.434799999999996,84.6623,52.799Q84.6083,53.1633,84.5722,53.5297Q84.5361,53.8962,84.5181,54.263999999999996Q84.5,54.6318,84.5,55Q84.5,55.9577,84.6218,56.9075Q84.7436,57.8574,84.9852,58.784099999999995Q85.2268,59.7108,85.5842,60.599199999999996Q85.9417,61.487700000000004,86.4093,62.3234L59.7127,55.6493C57.0688,54.9883,54.3826,56.5663,53.6727,59.1974L45.1727,90.6974C45.0581,91.1221,45,91.5601,45,92C45,94.76140000000001,47.2386,97,50,97C52.2598,97,54.2386,95.48429999999999,54.8273,93.3026L62.0487,66.5411L80.0802,71.0489Q66.98910000000001,91.24430000000001,69.6894,112.3053L47.3435,135.49439999999998L15.054490000000001,120.9416C14.40868,120.6505,13.70838,120.5,13,120.5C10.238579999999999,120.5,8,122.7386,8,125.5C8,127.4665,9.15269,129.2504,10.94551,130.0584L10.94984,130.06040000000002L46.4455,146.058C48.3713,146.926,50.6347,146.49099999999999,52.1004,144.969L75.57,120.6142L98.8948,137.6913L113.859,174.862L113.862,174.867C114.624,176.76,116.46,178,118.5,178C121.261,178,123.5,175.761,123.5,173C123.5,172.36,123.377,171.726,123.138,171.133L123.136,171.127L107.6382,132.6327C107.2898,131.7674,106.7063,131.0168,105.9537,130.4657L79.6303,111.1932Q77.4706,94.6202,87.3746,78.2629L96.7704,93.1665C97.0461,93.60390000000001,97.3881,93.9959,97.784,94.32849999999999C98.7994,95.1815,100.112,95.5961,101.4331,95.4812C102.7542,95.3663,103.9756,94.73140000000001,104.8285,93.71600000000001L125.826,68.7193L125.829,68.71600000000001C126.585,67.8152,127,66.6764,127,65.5C127,62.738600000000005,124.761,60.5,122,60.5C120.523,60.5,119.121,61.153099999999995,118.171,62.284099999999995L118.169,62.287400000000005L101.5769,82.0395L93.6219,69.4213Q93.8103,69.18809999999999,94.0007,68.9556Q95.3142,69.47319999999999,96.7012,69.7366Q98.0882,70,99.5,70Z" fill-rule="evenodd" fill="#000000" fill-opacity="0.20000000298023224"/></g><g><path d="M119.5,70Q119.8682,70,120.236,69.9819Q120.6038,69.9639,120.9703,69.9278Q121.3367,69.8917,121.7009,69.8376Q122.0652,69.7836,122.4263,69.7118Q122.7875,69.6399,123.1447,69.5505Q123.5019,69.461,123.8543,69.3541Q124.2066,69.24719999999999,124.5533,69.1232Q124.9,68.9991,125.2402,68.8582Q125.5804,68.7173,125.9133,68.5598Q126.2462,68.4024,126.5709,68.2288Q126.8957,68.0552,127.2115,67.8659Q127.5274,67.67660000000001,127.8335,67.47200000000001Q128.14,67.2675,128.435,67.0481Q128.731,66.8288,129.01600000000002,66.5952Q129.301,66.3616,129.57299999999998,66.1143Q129.846,65.867,130.107,65.6066Q130.36700000000002,65.3462,130.614,65.07339999999999Q130.862,64.8005,131.095,64.5159Q131.329,64.2313,131.548,63.935500000000005Q131.767,63.639700000000005,131.97199999999998,63.3335Q132.17700000000002,63.0274,132.36599999999999,62.7115Q132.555,62.395700000000005,132.72899999999998,62.0709Q132.902,61.7462,133.06,61.4133Q133.21699999999998,61.0804,133.358,60.7402Q133.499,60.4,133.623,60.0533Q133.747,59.7066,133.85399999999998,59.354299999999995Q133.961,59.0019,134.05,58.6447Q134.14,58.2875,134.212,57.9264Q134.284,57.565200000000004,134.338,57.201Q134.392,56.8367,134.428,56.4703Q134.464,56.1038,134.482,55.736000000000004Q134.5,55.3682,134.5,55Q134.5,54.6318,134.482,54.263999999999996Q134.464,53.8962,134.428,53.5297Q134.392,53.1633,134.338,52.799Q134.284,52.434799999999996,134.212,52.0736Q134.14,51.7125,134.05,51.3553Q133.961,50.9981,133.85399999999998,50.6457Q133.747,50.2934,133.623,49.94665Q133.499,49.59995,133.358,49.25975Q133.21699999999998,48.91955,133.06,48.58667Q132.902,48.2538,132.72899999999998,47.929050000000004Q132.555,47.6043,132.36599999999999,47.28846Q132.17700000000002,46.97262,131.97199999999998,46.66645Q131.767,46.36027,131.548,46.06451Q131.329,45.76875,131.095,45.4841Q130.862,45.19945,130.614,44.92661Q130.36700000000002,44.65378,130.107,44.3934Q129.846,44.13302,129.57299999999998,43.88573Q129.301,43.63845,129.01600000000002,43.40484Q128.731,43.17124,128.435,42.95189Q128.14,42.73253,127.8335,42.52796Q127.5274,42.32338,127.2115,42.13407Q126.8957,41.94476,126.5709,41.77118Q126.2462,41.5976,125.9133,41.44016Q125.5804,41.28272,125.2402,41.14181Q124.9,41.00089,124.5533,40.876839Q124.2066,40.752786,123.8543,40.645895Q123.5019,40.539004,123.1447,40.449531Q122.7875,40.360059,122.4263,40.288221Q122.0652,40.216383,121.7009,40.162352Q121.3367,40.108322,120.9703,40.0722291Q120.6038,40.0361363,120.236,40.0180682Q119.8682,40,119.5,40Q119.1318,40,118.764,40.0180682Q118.3962,40.0361363,118.0297,40.0722291Q117.6633,40.108322,117.299,40.162352Q116.9348,40.216383,116.5736,40.288221Q116.2125,40.360059,115.8553,40.449531Q115.4981,40.539004,115.1457,40.645895Q114.7934,40.752786,114.4466,40.876839Q114.0999,41.00089,113.7597,41.14181Q113.4195,41.28272,113.0867,41.44016Q112.7538,41.5976,112.429,41.77118Q112.1043,41.94476,111.7885,42.13407Q111.4726,42.32338,111.1664,42.52796Q110.8603,42.73253,110.5645,42.95189Q110.2687,43.17124,109.9841,43.40484Q109.6994,43.63845,109.4266,43.88573Q109.1538,44.13302,108.8934,44.3934Q108.633,44.65378,108.3857,44.92661Q108.1384,45.19945,107.9048,45.4841Q107.6712,45.76874,107.4519,46.06451Q107.2325,46.36027,107.0279,46.66645Q106.8234,46.97262,106.6341,47.28846Q106.4447,47.6043,106.2712,47.929050000000004Q106.0976,48.2538,105.9401,48.58667Q105.7827,48.91955,105.6418,49.25975Q105.5009,49.59995,105.3768,49.94665Q105.2528,50.2934,105.1459,50.6457Q105.039,50.9981,104.9495,51.3553Q104.8601,51.7125,104.7882,52.0736Q104.7164,52.434799999999996,104.6623,52.799Q104.6083,53.1633,104.5722,53.5297Q104.5361,53.8962,104.5181,54.263999999999996Q104.5,54.6318,104.5,55Q104.5,55.9577,104.6218,56.9075Q104.7436,57.8574,104.9852,58.784099999999995Q105.2268,59.7108,105.5842,60.599199999999996Q105.9417,61.487700000000004,106.4093,62.3234L79.7127,55.6493C77.06880000000001,54.9883,74.3826,56.5663,73.67269999999999,59.1974L65.17269999999999,90.6974C65.0581,91.1221,65,91.5601,65,92C65,94.76140000000001,67.23859999999999,97,70,97C72.2598,97,74.23859999999999,95.48429999999999,74.82730000000001,93.3026L82.0487,66.5411L100.0802,71.0489Q86.98910000000001,91.24430000000001,89.6894,112.3053L67.3435,135.49439999999998L35.05449,120.9416C34.408680000000004,120.6505,33.70838,120.5,33,120.5C30.23858,120.5,28,122.7386,28,125.5C28,127.4665,29.15269,129.2504,30.94551,130.0584L30.949840000000002,130.06040000000002L66.44550000000001,146.058C68.37129999999999,146.926,70.63470000000001,146.49099999999999,72.10040000000001,144.969L95.57,120.6142L118.8948,137.6913L133.85899999999998,174.862L133.862,174.867C134.624,176.76,136.45999999999998,178,138.5,178C141.261,178,143.5,175.761,143.5,173C143.5,172.36,143.377,171.726,143.138,171.133L143.136,171.127L127.6382,132.6327C127.2898,131.7674,126.7063,131.0168,125.9537,130.4657L99.6303,111.1932Q97.4706,94.6202,107.3746,78.2629L116.7704,93.1665C117.0461,93.60390000000001,117.3881,93.9959,117.784,94.32849999999999C118.7994,95.1815,120.112,95.5961,121.4331,95.4812C122.7542,95.3663,123.9756,94.73140000000001,124.8285,93.71600000000001L145.826,68.7193L145.829,68.71600000000001C146.58499999999998,67.8152,147,66.6764,147,65.5C147,62.738600000000005,144.761,60.5,142,60.5C140.523,60.5,139.12099999999998,61.153099999999995,138.171,62.284099999999995L138.16899999999998,62.287400000000005L121.5769,82.0395L113.6219,69.4213Q113.8103,69.18809999999999,114.0007,68.9556Q115.3142,69.47319999999999,116.7012,69.7366Q118.0882,70,119.5,70Z" fill-rule="evenodd" fill="#000000" fill-opacity="0.6000000238418579"/></g><g><path d="M138.5,70Q138.8682,70,139.236,69.9819Q139.6038,69.9639,139.9703,69.9278Q140.3367,69.8917,140.7009,69.8376Q141.0652,69.7836,141.4263,69.7118Q141.7875,69.6399,142.1447,69.5505Q142.5019,69.461,142.8543,69.3541Q143.20659999999998,69.24719999999999,143.55329999999998,69.1232Q143.9,68.9991,144.24020000000002,68.8582Q144.5804,68.7173,144.9133,68.5598Q145.2462,68.4024,145.5709,68.2288Q145.8957,68.0552,146.2115,67.8659Q146.5274,67.67660000000001,146.83350000000002,67.47200000000001Q147.14,67.2675,147.435,67.0481Q147.731,66.8288,148.01600000000002,66.5952Q148.301,66.3616,148.57299999999998,66.1143Q148.846,65.867,149.107,65.6066Q149.36700000000002,65.3462,149.614,65.07339999999999Q149.862,64.8005,150.095,64.5159Q150.329,64.2313,150.548,63.935500000000005Q150.767,63.639700000000005,150.97199999999998,63.3335Q151.17700000000002,63.0274,151.36599999999999,62.7115Q151.555,62.395700000000005,151.72899999999998,62.0709Q151.902,61.7462,152.06,61.4133Q152.21699999999998,61.0804,152.358,60.7402Q152.499,60.4,152.623,60.0533Q152.747,59.7066,152.85399999999998,59.354299999999995Q152.961,59.0019,153.05,58.6447Q153.14,58.2875,153.212,57.9264Q153.284,57.565200000000004,153.338,57.201Q153.392,56.8367,153.428,56.4703Q153.464,56.1038,153.482,55.736000000000004Q153.5,55.3682,153.5,55Q153.5,54.6318,153.482,54.263999999999996Q153.464,53.8962,153.428,53.5297Q153.392,53.1633,153.338,52.799Q153.284,52.434799999999996,153.212,52.0736Q153.14,51.7125,153.05,51.3553Q152.961,50.9981,152.85399999999998,50.6457Q152.747,50.2934,152.623,49.94665Q152.499,49.59995,152.358,49.25975Q152.21699999999998,48.91955,152.06,48.58667Q151.902,48.2538,151.72899999999998,47.929050000000004Q151.555,47.6043,151.36599999999999,47.28846Q151.17700000000002,46.97262,150.97199999999998,46.66645Q150.767,46.36027,150.548,46.06451Q150.329,45.76875,150.095,45.4841Q149.862,45.19945,149.614,44.92661Q149.36700000000002,44.65378,149.107,44.3934Q148.846,44.13302,148.57299999999998,43.88573Q148.301,43.63845,148.01600000000002,43.40484Q147.731,43.17124,147.435,42.95189Q147.14,42.73253,146.83350000000002,42.52796Q146.5274,42.32338,146.2115,42.13407Q145.8957,41.94476,145.5709,41.77118Q145.2462,41.5976,144.9133,41.44016Q144.5804,41.28272,144.24020000000002,41.14181Q143.9,41.00089,143.55329999999998,40.876839Q143.20659999999998,40.752786,142.8543,40.645895Q142.5019,40.539004,142.1447,40.449531Q141.7875,40.360059,141.4263,40.288221Q141.0652,40.216383,140.7009,40.162352Q140.3367,40.108322,139.9703,40.0722291Q139.6038,40.0361363,139.236,40.0180682Q138.8682,40,138.5,40Q138.1318,40,137.764,40.0180682Q137.3962,40.0361363,137.0297,40.0722291Q136.6633,40.108322,136.299,40.162352Q135.9348,40.216383,135.5736,40.288221Q135.2125,40.360059,134.8553,40.449531Q134.4981,40.539004,134.1457,40.645895Q133.79340000000002,40.752786,133.4466,40.876839Q133.0999,41.00089,132.7597,41.14181Q132.4195,41.28272,132.0867,41.44016Q131.7538,41.5976,131.429,41.77118Q131.1043,41.94476,130.7885,42.13407Q130.4726,42.32338,130.1664,42.52796Q129.8603,42.73253,129.5645,42.95189Q129.2687,43.17124,128.9841,43.40484Q128.6994,43.63845,128.4266,43.88573Q128.1538,44.13302,127.8934,44.3934Q127.633,44.65378,127.3857,44.92661Q127.1384,45.19945,126.9048,45.4841Q126.6712,45.76874,126.4519,46.06451Q126.2325,46.36027,126.0279,46.66645Q125.8234,46.97262,125.6341,47.28846Q125.4447,47.6043,125.2712,47.929050000000004Q125.0976,48.2538,124.9401,48.58667Q124.7827,48.91955,124.6418,49.25975Q124.5009,49.59995,124.3768,49.94665Q124.2528,50.2934,124.1459,50.6457Q124.039,50.9981,123.9495,51.3553Q123.8601,51.7125,123.7882,52.0736Q123.7164,52.434799999999996,123.6623,52.799Q123.6083,53.1633,123.5722,53.5297Q123.5361,53.8962,123.5181,54.263999999999996Q123.5,54.6318,123.5,55Q123.5,55.9577,123.6218,56.9075Q123.7436,57.8574,123.9852,58.784099999999995Q124.2268,59.7108,124.5842,60.599199999999996Q124.9417,61.487700000000004,125.4093,62.3234L98.7127,55.6493C96.06880000000001,54.9883,93.3826,56.5663,92.67269999999999,59.1974L84.17269999999999,90.6974C84.0581,91.1221,84,91.5601,84,92C84,94.76140000000001,86.23859999999999,97,89,97C91.2598,97,93.23859999999999,95.48429999999999,93.82730000000001,93.3026L101.0487,66.5411L119.0802,71.0489Q105.98910000000001,91.24430000000001,108.6894,112.3053L86.3435,135.49439999999998L54.05449,120.9416C53.408680000000004,120.6505,52.70838,120.5,52,120.5C49.23858,120.5,47,122.7386,47,125.5C47,127.4665,48.15269,129.2504,49.94551,130.0584L49.94984,130.06040000000002L85.44550000000001,146.058C87.37129999999999,146.926,89.63470000000001,146.49099999999999,91.10040000000001,144.969L114.57,120.6142L137.8948,137.6913L152.85899999999998,174.862L152.862,174.867C153.624,176.76,155.45999999999998,178,157.5,178C160.261,178,162.5,175.761,162.5,173C162.5,172.36,162.377,171.726,162.138,171.133L162.136,171.127L146.63819999999998,132.6327C146.2898,131.7674,145.7063,131.0168,144.9537,130.4657L118.6303,111.1932Q116.4706,94.6202,126.3746,78.2629L135.7704,93.1665C136.0461,93.60390000000001,136.3881,93.9959,136.784,94.32849999999999C137.7994,95.1815,139.112,95.5961,140.4331,95.4812C141.7542,95.3663,142.9756,94.73140000000001,143.82850000000002,93.71600000000001L164.826,68.7193L164.829,68.71600000000001C165.58499999999998,67.8152,166,66.6764,166,65.5C166,62.738600000000005,163.761,60.5,161,60.5C159.523,60.5,158.12099999999998,61.153099999999995,157.171,62.284099999999995L157.16899999999998,62.287400000000005L140.5769,82.0395L132.62189999999998,69.4213Q132.81029999999998,69.18809999999999,133.0007,68.9556Q134.3142,69.47319999999999,135.7012,69.7366Q137.0882,70,138.5,70Z" fill-rule="evenodd" fill="#000000" fill-opacity="1"/></g></g></g></svg>